<svg width="15" height="18" viewBox="0 0 15 18" fill="none" xmlns="http://www.w3.org/2000/svg">
<path d="M13.9143 14.5L0.324402 14.5034C0.324402 14.5034 1.91513 12.3063 2.26582 10.5C3.23652 5.5 1.78046 2 7.11935 2.00342C12.9436 2 11.0022 7 11.9729 10.5C12.4386 12.1793 13.9143 14.5 13.9143 14.5Z" fill="black"/>
<path d="M0.324402 14.5034L0.243403 14.4448C0.221365 14.4752 0.218252 14.5154 0.235345 14.5489C0.252437 14.5824 0.286848 14.6034 0.324427 14.6034L0.324402 14.5034ZM13.9143 14.5L13.9143 14.6C13.9508 14.6 13.9844 14.5801 14.002 14.5481C14.0195 14.5161 14.0183 14.4771 13.9987 14.4463L13.9143 14.5ZM11.9729 10.5L12.0692 10.4733L11.9729 10.5ZM7.11935 2.00342L7.11929 2.10342L7.11941 2.10342L7.11935 2.00342ZM2.26582 10.5L2.16765 10.4809L2.26582 10.5ZM0.324427 14.6034L13.9143 14.6L13.9143 14.4L0.324377 14.4034L0.324427 14.6034ZM13.9143 14.5C13.9987 14.4463 13.9987 14.4463 13.9987 14.4463C13.9987 14.4463 13.9987 14.4463 13.9986 14.4463C13.9986 14.4462 13.9985 14.4461 13.9985 14.446C13.9983 14.4457 13.998 14.4453 13.9977 14.4448C13.997 14.4437 13.996 14.4421 13.9946 14.4399C13.9918 14.4355 13.9877 14.429 13.9823 14.4204C13.9715 14.4032 13.9555 14.3776 13.935 14.3444C13.894 14.2781 13.8348 14.1813 13.7623 14.0599C13.6172 13.817 13.419 13.4757 13.2062 13.0822C12.7797 12.2933 12.299 11.3015 12.0692 10.4733L11.8765 10.5267C12.1126 11.3778 12.6025 12.386 13.0303 13.1773C13.2447 13.5739 13.4444 13.9177 13.5906 14.1624C13.6637 14.2848 13.7234 14.3825 13.7649 14.4496C13.7857 14.4832 13.8019 14.5091 13.8129 14.5267C13.8184 14.5355 13.8227 14.5422 13.8255 14.5467C13.8269 14.549 13.828 14.5507 13.8288 14.5518C13.8291 14.5524 13.8294 14.5529 13.8296 14.5532C13.8297 14.5533 13.8298 14.5534 13.8298 14.5535C13.8299 14.5536 13.8299 14.5536 13.8299 14.5536C13.8299 14.5536 13.8299 14.5537 13.9143 14.5ZM12.0692 10.4733C11.83 9.61053 11.7695 8.65243 11.7239 7.69064C11.6786 6.73347 11.6481 5.77044 11.4639 4.91684C11.2793 4.06091 10.9376 3.30203 10.2609 2.75936C9.58469 2.21718 8.58861 1.90256 7.11929 1.90342L7.11941 2.10342C8.56222 2.10257 9.50754 2.41167 10.1358 2.9154C10.7634 3.41865 11.0891 4.12787 11.2684 4.95902C11.4483 5.79249 11.4785 6.7355 11.5242 7.7001C11.5696 8.66007 11.6304 9.63947 11.8765 10.5267L12.0692 10.4733ZM7.11942 1.90342C5.77586 1.90256 4.84354 2.12172 4.19097 2.54239C3.53489 2.96533 3.17495 3.58316 2.9583 4.34818C2.74275 5.1093 2.66644 6.02609 2.58324 7.05449C2.49977 8.08628 2.40911 9.23719 2.16765 10.4809L2.36398 10.5191C2.60787 9.26281 2.69922 8.10122 2.78259 7.07062C2.86624 6.03662 2.9416 5.14113 3.15073 4.40268C3.35876 3.66812 3.69652 3.0991 4.29933 2.71049C4.90565 2.31963 5.7934 2.10257 7.11929 2.10342L7.11942 1.90342ZM2.16765 10.4809C1.99552 11.3676 1.51691 12.3568 1.07671 13.1296C0.857271 13.5148 0.648675 13.844 0.494978 14.0768C0.418149 14.1932 0.355086 14.2854 0.311308 14.3484C0.289421 14.3799 0.272358 14.4042 0.260809 14.4204C0.255035 14.4286 0.25064 14.4347 0.24771 14.4388C0.246245 14.4408 0.245147 14.4424 0.244425 14.4434C0.244064 14.4439 0.243798 14.4442 0.243627 14.4445C0.243542 14.4446 0.24348 14.4447 0.243443 14.4447C0.243424 14.4447 0.243414 14.4448 0.243405 14.4448C0.243401 14.4448 0.243403 14.4448 0.324402 14.5034C0.405401 14.5621 0.405415 14.562 0.405435 14.562C0.40545 14.562 0.405477 14.562 0.405506 14.5619C0.405566 14.5618 0.405649 14.5617 0.405756 14.5616C0.405971 14.5613 0.406282 14.5608 0.406687 14.5603C0.407498 14.5592 0.408686 14.5575 0.410242 14.5553C0.413353 14.551 0.417933 14.5446 0.423895 14.5362C0.435819 14.5194 0.453275 14.4946 0.475569 14.4625C0.520154 14.3983 0.584107 14.3048 0.661888 14.187C0.817412 13.9514 1.02842 13.6184 1.25049 13.2286C1.69333 12.4512 2.18543 11.4388 2.36398 10.5191L2.16765 10.4809Z" fill="black"/>
<path d="M6.14865 0.970707C6.14865 0.4346 6.58325 0 7.11936 0C7.65546 0 8.09007 0.4346 8.09007 0.970707V2H6.14865V0.970707Z" fill="black"/>
<path d="M9.54613 15.5H5.17795C5.17795 15.5 5.17795 18 7.60472 18C9.54613 18 9.54613 15.5 9.54613 15.5Z" fill="black"/>
</svg>
